# xmcd CD database file generated by OrangeCD 5.1
#
# Track frame offsets:
#	150
#	18440
#	32232
#	44955
#	56795
#	69367
#	89495
#	100167
#	113377
#	124687
#	138412
#	149535
#	160710
#	173472
#	184237
#	204270
#	218885
#	232080
#	244347
#	257497
#	270320
#
# Disc length: 3759 seconds
#
# Revision: 2
# Processed by: cddbd v1.5PL3 Copyright (c) Steve Scherf et al.
# Submitted via: OrangeCD 5.1
#
DISCID=2e0ead15
DTITLE=Bo Diddley - The Chess Box: 1959-69 [CD2]
DYEAR=1990
DGENRE=Rock
TTITLE0=She's Alright (1959)
TTITLE1=Say Man, Back Again [alt. take] (1959)
TTITLE2=Road Runner (1959)
TTITLE3=Spend My Life With You (1959)
TTITLE4=Cadillac (1960)
TTITLE5=Signifying Blues [extended version] (1960)
TTITLE6=Deed And Deed I Do (1960)
TTITLE7=You Know I Love You (1960)
TTITLE8=Look At My Baby (1960)
TTITLE9=Ride On Josephine (1960)
TTITLE10=Aztec (1961)
TTITLE11=Back Home (1961)
TTITLE12=Pills (1961)
TTITLE13=Untitled Instrumental (1961)
TTITLE14=I Can Tell (1962)
TTITLE15=You Can't Judge A Book By It's Cover (1962)
TTITLE16=Who May Your Lover Be (1962)
TTITLE17=The Greatest Lover In The World (1963)
TTITLE18=500% More Man (1965)
TTITLE19=Ooh Baby (1968)
TTITLE20=Bo Diddley 1969 (1968)
EXTD=
EXTT0=
EXTT1=
EXTT2=
EXTT3=
EXTT4=
EXTT5=
EXTT6=
EXTT7=
EXTT8=
EXTT9=
EXTT10=
EXTT11=
EXTT12=
EXTT13=
EXTT14=
EXTT15=
EXTT16=
EXTT17=
EXTT18=
EXTT19=
EXTT20=
PLAYORDER=
